<mxfile host="app.diagrams.net" modified="2020-08-28T09:50:51.293Z" agent="5.0 (Windows NT 10.0; Win64; x64) AppleWebKit/537.36 (KHTML, like Gecko) Chrome/83.0.4103.116 Safari/537.36" etag="FEXgqkU1VYaP4-thw5Xw" version="13.6.5" type="github">
  <diagram id="IzqHhsSaqwoqRDwls7bX" name="Page-1">
    <mxGraphModel dx="1422" dy="772" grid="1" gridSize="10" guides="1" tooltips="1" connect="1" arrows="1" fold="1" page="1" pageScale="1" pageWidth="827" pageHeight="1169" math="0" shadow="0">
      <root>
        <mxCell id="0" />
        <mxCell id="1" parent="0" />
        <mxCell id="ev3VzU7VxPj3fkEGH2Zx-1" value="" style="shape=image;html=1;verticalAlign=top;verticalLabelPosition=bottom;labelBackgroundColor=#ffffff;imageAspect=0;aspect=fixed;image=https://cdn3.iconfinder.com/data/icons/family-member-flat-happy-family-day/512/Aunt-128.png" parent="1" vertex="1">
          <mxGeometry x="10" y="340" width="128" height="128" as="geometry" />
        </mxCell>
        <mxCell id="ev3VzU7VxPj3fkEGH2Zx-2" value="" style="shape=image;html=1;verticalAlign=top;verticalLabelPosition=bottom;labelBackgroundColor=#ffffff;imageAspect=0;aspect=fixed;image=https://cdn1.iconfinder.com/data/icons/my--icons-by-itzikgur/128/Travel_-__Airplane.png" parent="1" vertex="1">
          <mxGeometry x="286" y="110" width="128" height="128" as="geometry" />
        </mxCell>
        <mxCell id="ev3VzU7VxPj3fkEGH2Zx-3" value="" style="shape=image;html=1;verticalAlign=top;verticalLabelPosition=bottom;labelBackgroundColor=#ffffff;imageAspect=0;aspect=fixed;image=https://cdn2.iconfinder.com/data/icons/Matchbox-Car-Icons-Mac/128/Mercedes_Coach.png" parent="1" vertex="1">
          <mxGeometry x="286" y="420" width="128" height="128" as="geometry" />
        </mxCell>
        <mxCell id="ev3VzU7VxPj3fkEGH2Zx-6" value="" style="shape=image;html=1;verticalAlign=top;verticalLabelPosition=bottom;labelBackgroundColor=#ffffff;imageAspect=0;aspect=fixed;image=https://cdn4.iconfinder.com/data/icons/48x48-free-object-icons/48/Bike.png" parent="1" vertex="1">
          <mxGeometry x="291" y="585" width="118" height="118" as="geometry" />
        </mxCell>
        <mxCell id="ev3VzU7VxPj3fkEGH2Zx-7" value="" style="shape=image;html=1;verticalAlign=top;verticalLabelPosition=bottom;labelBackgroundColor=#ffffff;imageAspect=0;aspect=fixed;image=https://cdn4.iconfinder.com/data/icons/mass-disinfection/64/train-health-quarantine-sars-covid19-coronavirus-128.png" parent="1" vertex="1">
          <mxGeometry x="290" y="260" width="128" height="128" as="geometry" />
        </mxCell>
        <mxCell id="ev3VzU7VxPj3fkEGH2Zx-8" value="" style="shape=image;html=1;verticalAlign=top;verticalLabelPosition=bottom;labelBackgroundColor=#ffffff;imageAspect=0;aspect=fixed;image=https://cdn2.iconfinder.com/data/icons/winter-activity/128/winter-activity-02-128.png" parent="1" vertex="1">
          <mxGeometry x="650" y="350" width="128" height="128" as="geometry" />
        </mxCell>
        <mxCell id="ev3VzU7VxPj3fkEGH2Zx-10" value="" style="endArrow=classic;html=1;" parent="1" edge="1">
          <mxGeometry width="50" height="50" relative="1" as="geometry">
            <mxPoint x="150" y="400" as="sourcePoint" />
            <mxPoint x="280" y="200" as="targetPoint" />
          </mxGeometry>
        </mxCell>
        <mxCell id="ev3VzU7VxPj3fkEGH2Zx-11" value="" style="endArrow=classic;html=1;" parent="1" edge="1">
          <mxGeometry width="50" height="50" relative="1" as="geometry">
            <mxPoint x="150" y="400" as="sourcePoint" />
            <mxPoint x="270" y="340" as="targetPoint" />
          </mxGeometry>
        </mxCell>
        <mxCell id="ev3VzU7VxPj3fkEGH2Zx-12" value="" style="endArrow=classic;html=1;" parent="1" edge="1">
          <mxGeometry width="50" height="50" relative="1" as="geometry">
            <mxPoint x="150" y="400" as="sourcePoint" />
            <mxPoint x="260" y="480" as="targetPoint" />
          </mxGeometry>
        </mxCell>
        <mxCell id="ev3VzU7VxPj3fkEGH2Zx-13" value="" style="endArrow=classic;html=1;" parent="1" edge="1">
          <mxGeometry width="50" height="50" relative="1" as="geometry">
            <mxPoint x="150" y="400" as="sourcePoint" />
            <mxPoint x="270" y="630" as="targetPoint" />
          </mxGeometry>
        </mxCell>
        <mxCell id="ev3VzU7VxPj3fkEGH2Zx-16" value="" style="endArrow=classic;html=1;entryX=0;entryY=0.25;entryDx=0;entryDy=0;" parent="1" edge="1" target="ev3VzU7VxPj3fkEGH2Zx-8">
          <mxGeometry width="50" height="50" relative="1" as="geometry">
            <mxPoint x="440" y="190" as="sourcePoint" />
            <mxPoint x="640" y="380" as="targetPoint" />
          </mxGeometry>
        </mxCell>
        <mxCell id="ev3VzU7VxPj3fkEGH2Zx-17" value="" style="endArrow=classic;html=1;" parent="1" edge="1">
          <mxGeometry width="50" height="50" relative="1" as="geometry">
            <mxPoint x="440" y="340" as="sourcePoint" />
            <mxPoint x="640" y="390" as="targetPoint" />
          </mxGeometry>
        </mxCell>
        <mxCell id="ev3VzU7VxPj3fkEGH2Zx-18" value="" style="endArrow=classic;html=1;" parent="1" edge="1">
          <mxGeometry width="50" height="50" relative="1" as="geometry">
            <mxPoint x="420" y="460" as="sourcePoint" />
            <mxPoint x="640" y="390" as="targetPoint" />
          </mxGeometry>
        </mxCell>
        <mxCell id="ev3VzU7VxPj3fkEGH2Zx-19" value="" style="endArrow=classic;html=1;" parent="1" edge="1">
          <mxGeometry width="50" height="50" relative="1" as="geometry">
            <mxPoint x="430" y="630" as="sourcePoint" />
            <mxPoint x="640" y="400" as="targetPoint" />
          </mxGeometry>
        </mxCell>
      </root>
    </mxGraphModel>
  </diagram>
</mxfile>
